<?xml version="1.0" encoding="utf-8" standalone="no"?>
<!DOCTYPE svg PUBLIC "-//W3C//DTD SVG 1.1//EN"
  "http://www.w3.org/Graphics/SVG/1.1/DTD/svg11.dtd">
<svg xmlns:xlink="http://www.w3.org/1999/xlink" width="1003.808125pt" height="555.080798pt" viewBox="0 0 1003.808125 555.080798" xmlns="http://www.w3.org/2000/svg" version="1.1">
 <metadata>
  <rdf:RDF xmlns:dc="http://purl.org/dc/elements/1.1/" xmlns:cc="http://creativecommons.org/ns#" xmlns:rdf="http://www.w3.org/1999/02/22-rdf-syntax-ns#">
   <cc:Work>
    <dc:type rdf:resource="http://purl.org/dc/dcmitype/StillImage"/>
    <dc:date>2025-09-27T19:48:53.574560</dc:date>
    <dc:format>image/svg+xml</dc:format>
    <dc:creator>
     <cc:Agent>
      <dc:title>Matplotlib v3.9.4, https://matplotlib.org/</dc:title>
     </cc:Agent>
    </dc:creator>
   </cc:Work>
  </rdf:RDF>
 </metadata>
 <defs>
  <style type="text/css">*{stroke-linejoin: round; stroke-linecap: butt}</style>
 </defs>
 <g id="figure_1">
  <g id="patch_1">
   <path d="M 0 555.080798 
L 1003.808125 555.080798 
L 1003.808125 0 
L 0 0 
L 0 555.080798 
z
" style="fill: none"/>
  </g>
  <g id="axes_1">
   <g id="patch_2">
    <path d="M 102.408125 380.209576 
L 996.608125 380.209576 
L 996.608125 7.2 
L 102.408125 7.2 
z
" style="fill: #ffffff"/>
   </g>
   <g id="matplotlib.axis_1">
    <g id="xtick_1">
     <g id="line2d_1">
      <defs>
       <path id="m62209dfadc" d="M 0 0 
L 0 9 
" style="stroke: #000000; stroke-width: 1.875"/>
      </defs>
      <g>
       <use xlink:href="#m62209dfadc" x="143.05358" y="380.209576" style="stroke: #000000; stroke-width: 1.875"/>
      </g>
     </g>
     <g id="text_1">
      <!-- NLLB$_{d-small}$ -->
      <g transform="translate(50.213774 494.134542) rotate(-45)">
       <text>
        <tspan style="font: 22px 'DejaVu Sans'" x="0 16.457031 28.713867 40.970703" y="-0.96875">NLLB</tspan>
        <tspan style="font: oblique 15.4px 'DejaVu Sans'" x="56.274023 84.953516 92.976855 107.97832 117.415332 121.693945" y="2.640625">dsmall</tspan>
        <tspan style="font: 15.4px 'DejaVu Sans'" x="69.049707" y="2.640625">−</tspan>
       </text>
      </g>
     </g>
    </g>
    <g id="xtick_2">
     <g id="line2d_2">
      <g>
       <use xlink:href="#m62209dfadc" x="180.003993" y="380.209576" style="stroke: #000000; stroke-width: 1.875"/>
      </g>
     </g>
     <g id="text_2">
      <!-- NLLB$_{d-large}$ -->
      <g transform="translate(86.821461 492.425774) rotate(-45)">
       <text>
        <tspan style="font: 22px 'DejaVu Sans'" x="0 16.457031 28.713867 40.970703" y="-0.96875">NLLB</tspan>
        <tspan style="font: oblique 15.4px 'DejaVu Sans'" x="56.274023 84.953516 89.232129 98.669141 105.000586 114.775977" y="2.640625">dlarge</tspan>
        <tspan style="font: 15.4px 'DejaVu Sans'" x="69.049707" y="2.640625">−</tspan>
       </text>
      </g>
     </g>
    </g>
    <g id="xtick_3">
     <g id="line2d_3">
      <g>
       <use xlink:href="#m62209dfadc" x="216.954406" y="380.209576" style="stroke: #000000; stroke-width: 1.875"/>
      </g>
     </g>
     <g id="text_3">
      <!-- NLLB$_{large}$ -->
      <g transform="translate(143.995128 472.20252) rotate(-45)">
       <text>
        <tspan style="font: 22px 'DejaVu Sans'" x="0 16.457031 28.713867 40.970703" y="-0.96875">NLLB</tspan>
        <tspan style="font: oblique 15.4px 'DejaVu Sans'" x="56.274023 60.552637 69.989648 76.321094 86.096484" y="2.640625">large</tspan>
       </text>
      </g>
     </g>
    </g>
    <g id="xtick_4">
     <g id="line2d_4">
      <g>
       <use xlink:href="#m62209dfadc" x="272.380026" y="380.209576" style="stroke: #000000; stroke-width: 1.875"/>
      </g>
     </g>
     <g id="text_4">
      <text style="font: 22px 'DejaVu Sans'" transform="translate(192.116556 481.558206) rotate(-45)">XLM-Align</text>
     </g>
    </g>
    <g id="xtick_5">
     <g id="line2d_5">
      <g>
       <use xlink:href="#m62209dfadc" x="309.330439" y="380.209576" style="stroke: #000000; stroke-width: 1.875"/>
      </g>
     </g>
     <g id="text_5">
      <!-- InfoXLM$_{small}$ -->
      <g transform="translate(214.312744 496.312431) rotate(-45)">
       <text>
        <tspan style="font: 22px 'DejaVu Sans'" x="0 6.488281 20.431641 28.176758 41.636719 56.708008 68.964844" y="-0.28125">InfoXLM</tspan>
        <tspan style="font: oblique 15.4px 'DejaVu Sans'" x="88.156836 96.180176 111.181641 120.618652 124.897266" y="3.328125">small</tspan>
       </text>
      </g>
     </g>
    </g>
    <g id="xtick_6">
     <g id="line2d_6">
      <g>
       <use xlink:href="#m62209dfadc" x="346.280852" y="380.209576" style="stroke: #000000; stroke-width: 1.875"/>
      </g>
     </g>
     <g id="text_6">
      <!-- InfoXLM$_{large}$ -->
      <g transform="translate(250.764868 495.225917) rotate(-45)">
       <text>
        <tspan style="font: 22px 'DejaVu Sans'" x="0 6.488281 20.431641 28.176758 41.636719 56.708008 68.964844" y="-0.28125">InfoXLM</tspan>
        <tspan style="font: oblique 15.4px 'DejaVu Sans'" x="88.156836 92.435449 101.872461 108.203906 117.979297" y="3.328125">large</tspan>
       </text>
      </g>
     </g>
    </g>
    <g id="xtick_7">
     <g id="line2d_7">
      <g>
       <use xlink:href="#m62209dfadc" x="438.656885" y="380.209576" style="stroke: #000000; stroke-width: 1.875"/>
      </g>
     </g>
     <g id="text_7">
      <text style="font: 22px 'DejaVu Sans'" transform="translate(366.254233 473.697388) rotate(-45)">mMiniLM</text>
     </g>
    </g>
    <g id="xtick_8">
     <g id="line2d_8">
      <g>
       <use xlink:href="#m62209dfadc" x="475.607299" y="380.209576" style="stroke: #000000; stroke-width: 1.875"/>
      </g>
     </g>
     <g id="text_8">
      <!-- XLM-R$_{base}$ -->
      <g transform="translate(396.612644 480.289391) rotate(-45)">
       <text>
        <tspan style="font: 22px 'DejaVu Sans'" x="0 15.071289 27.328125 46.30957 54.248047" y="-0.96875">XLM-R</tspan>
        <tspan style="font: oblique 15.4px 'DejaVu Sans'" x="69.744727 79.520117 88.957129 96.980469" y="2.640625">base</tspan>
       </text>
      </g>
     </g>
    </g>
    <g id="xtick_9">
     <g id="line2d_9">
      <g>
       <use xlink:href="#m62209dfadc" x="512.557712" y="380.209576" style="stroke: #000000; stroke-width: 1.875"/>
      </g>
     </g>
     <g id="text_9">
      <!-- XLM-R$_{large}$ -->
      <g transform="translate(430.109061 481.691893) rotate(-45)">
       <text>
        <tspan style="font: 22px 'DejaVu Sans'" x="0 15.071289 27.328125 46.30957 54.248047" y="-0.96875">XLM-R</tspan>
        <tspan style="font: oblique 15.4px 'DejaVu Sans'" x="69.744727 74.02334 83.460352 89.791797 99.567188" y="2.640625">large</tspan>
       </text>
      </g>
     </g>
    </g>
    <g id="xtick_10">
     <g id="line2d_10">
      <g>
       <use xlink:href="#m62209dfadc" x="549.508125" y="380.209576" style="stroke: #000000; stroke-width: 1.875"/>
      </g>
     </g>
     <g id="text_10">
      <text style="font: 22px 'DejaVu Sans'" transform="translate(452.288235 498.514626) rotate(-45)">DistilmBERT</text>
     </g>
    </g>
    <g id="xtick_11">
     <g id="line2d_11">
      <g>
       <use xlink:href="#m62209dfadc" x="586.458538" y="380.209576" style="stroke: #000000; stroke-width: 1.875"/>
      </g>
     </g>
     <g id="text_11">
      <text style="font: 22px 'DejaVu Sans'" transform="translate(528.384742 459.368532) rotate(-45)">mBERT</text>
     </g>
    </g>
    <g id="xtick_12">
     <g id="line2d_12">
      <g>
       <use xlink:href="#m62209dfadc" x="623.408951" y="380.209576" style="stroke: #000000; stroke-width: 1.875"/>
      </g>
     </g>
     <g id="text_12">
      <text style="font: 22px 'DejaVu Sans'" transform="translate(536.818423 487.885265) rotate(-45)">mDeBERTa</text>
     </g>
    </g>
    <g id="xtick_13">
     <g id="line2d_13">
      <g>
       <use xlink:href="#m62209dfadc" x="678.834571" y="380.209576" style="stroke: #000000; stroke-width: 1.875"/>
      </g>
     </g>
     <g id="text_13">
      <!-- mT5$_{small}$ -->
      <g transform="translate(611.351615 468.777693) rotate(-45)">
       <text>
        <tspan style="font: 22px 'DejaVu Sans'" x="0 21.430664 34.869141" y="-0.96875">mT5</tspan>
        <tspan style="font: oblique 15.4px 'DejaVu Sans'" x="49.076758 57.100098 72.101562 81.538574 85.817188" y="2.640625">small</tspan>
       </text>
      </g>
     </g>
    </g>
    <g id="xtick_14">
     <g id="line2d_14">
      <g>
       <use xlink:href="#m62209dfadc" x="715.784985" y="380.209576" style="stroke: #000000; stroke-width: 1.875"/>
      </g>
     </g>
     <g id="text_14">
      <!-- mT5$_{base}$ -->
      <g transform="translate(651.413298 465.666423) rotate(-45)">
       <text>
        <tspan style="font: 22px 'DejaVu Sans'" x="0 21.430664 34.869141" y="-0.96875">mT5</tspan>
        <tspan style="font: oblique 15.4px 'DejaVu Sans'" x="49.076758 58.852148 68.28916 76.3125" y="2.640625">base</tspan>
       </text>
      </g>
     </g>
    </g>
    <g id="xtick_15">
     <g id="line2d_15">
      <g>
       <use xlink:href="#m62209dfadc" x="752.735398" y="380.209576" style="stroke: #000000; stroke-width: 1.875"/>
      </g>
     </g>
     <g id="text_15">
      <!-- mT5$_{large}$ -->
      <g transform="translate(684.909715 467.068925) rotate(-45)">
       <text>
        <tspan style="font: 22px 'DejaVu Sans'" x="0 21.430664 34.869141" y="-0.96875">mT5</tspan>
        <tspan style="font: oblique 15.4px 'DejaVu Sans'" x="49.076758 53.355371 62.792383 69.123828 78.899219" y="2.640625">large</tspan>
       </text>
      </g>
     </g>
    </g>
    <g id="xtick_16">
     <g id="line2d_16">
      <g>
       <use xlink:href="#m62209dfadc" x="808.161018" y="380.209576" style="stroke: #000000; stroke-width: 1.875"/>
      </g>
     </g>
     <g id="text_16">
      <text style="font: 22px 'DejaVu Sans'" transform="translate(758.837668 450.618086) rotate(-45)">mGPT</text>
     </g>
    </g>
    <g id="xtick_17">
     <g id="line2d_17">
      <g>
       <use xlink:href="#m62209dfadc" x="845.111431" y="380.209576" style="stroke: #000000; stroke-width: 1.875"/>
      </g>
     </g>
     <g id="text_17">
      <!-- XGLM$_{small}$ -->
      <g transform="translate(767.361284 479.044883) rotate(-45)">
       <text>
        <tspan style="font: 22px 'DejaVu Sans'" x="0 15.071289 32.119141 44.375977" y="-0.671875">XGLM</tspan>
        <tspan style="font: oblique 15.4px 'DejaVu Sans'" x="63.567969 71.591309 86.592773 96.029785 100.308398" y="2.9375">small</tspan>
       </text>
      </g>
     </g>
    </g>
    <g id="xtick_18">
     <g id="line2d_18">
      <g>
       <use xlink:href="#m62209dfadc" x="882.061844" y="380.209576" style="stroke: #000000; stroke-width: 1.875"/>
      </g>
     </g>
     <g id="text_18">
      <!-- XGLM$_{med}$ -->
      <g transform="translate(809.134165 474.222415) rotate(-45)">
       <text>
        <tspan style="font: 22px 'DejaVu Sans'" x="0 15.071289 32.119141 44.375977" y="-0.671875">XGLM</tspan>
        <tspan style="font: oblique 15.4px 'DejaVu Sans'" x="63.567969 78.569434 88.044043" y="2.9375">med</tspan>
       </text>
      </g>
     </g>
    </g>
    <g id="xtick_19">
     <g id="line2d_19">
      <g>
       <use xlink:href="#m62209dfadc" x="919.012257" y="380.209576" style="stroke: #000000; stroke-width: 1.875"/>
      </g>
     </g>
     <g id="text_19">
      <!-- XGLM$_{large}$ -->
      <g transform="translate(840.919384 477.647242) rotate(-45)">
       <text>
        <tspan style="font: 22px 'DejaVu Sans'" x="0 15.071289 32.119141 44.375977" y="-0.671875">XGLM</tspan>
        <tspan style="font: oblique 15.4px 'DejaVu Sans'" x="63.567969 67.846582 77.283594 83.615039 93.39043" y="2.9375">large</tspan>
       </text>
      </g>
     </g>
    </g>
    <g id="xtick_20">
     <g id="line2d_20">
      <g>
       <use xlink:href="#m62209dfadc" x="955.96267" y="380.209576" style="stroke: #000000; stroke-width: 1.875"/>
      </g>
     </g>
     <g id="text_20">
      <!-- XGLM$_{xl}$ -->
      <g transform="translate(897.813523 459.443883) rotate(-45)">
       <text>
        <tspan style="font: 22px 'DejaVu Sans'" x="0 15.071289 32.119141 44.375977" y="-0.671875">XGLM</tspan>
        <tspan style="font: oblique 15.4px 'DejaVu Sans'" x="63.567969 72.681641" y="2.9375">xl</tspan>
       </text>
      </g>
     </g>
    </g>
    <g id="text_21">
     <text style="font: 27px 'DejaVu Sans'; text-anchor: middle" x="549.508125" y="542.265642" transform="rotate(-0 549.508125 542.265642)">Model</text>
    </g>
   </g>
   <g id="matplotlib.axis_2">
    <g id="ytick_1">
     <g id="line2d_21">
      <path d="M 102.408125 330.474966 
L 996.608125 330.474966 
" clip-path="url(#p86e1cacbfc)" style="fill: none; stroke-dasharray: 5.55,2.4; stroke-dashoffset: 0; stroke: #b0b0b0; stroke-opacity: 0.3; stroke-width: 1.5"/>
     </g>
     <g id="line2d_22">
      <defs>
       <path id="m02b21ca74f" d="M 0 0 
L -9 0 
" style="stroke: #000000; stroke-width: 1.875"/>
      </defs>
      <g>
       <use xlink:href="#m02b21ca74f" x="102.408125" y="330.474966" style="stroke: #000000; stroke-width: 1.875"/>
      </g>
     </g>
     <g id="text_22">
      <text style="font: 23px 'DejaVu Sans'; text-anchor: end" x="89.908125" y="339.213169" transform="rotate(-0 89.908125 339.213169)">0.1</text>
     </g>
    </g>
    <g id="ytick_2">
     <g id="line2d_23">
      <path d="M 102.408125 280.740356 
L 996.608125 280.740356 
" clip-path="url(#p86e1cacbfc)" style="fill: none; stroke-dasharray: 5.55,2.4; stroke-dashoffset: 0; stroke: #b0b0b0; stroke-opacity: 0.3; stroke-width: 1.5"/>
     </g>
     <g id="line2d_24">
      <g>
       <use xlink:href="#m02b21ca74f" x="102.408125" y="280.740356" style="stroke: #000000; stroke-width: 1.875"/>
      </g>
     </g>
     <g id="text_23">
      <text style="font: 23px 'DejaVu Sans'; text-anchor: end" x="89.908125" y="289.478559" transform="rotate(-0 89.908125 289.478559)">0.2</text>
     </g>
    </g>
    <g id="ytick_3">
     <g id="line2d_25">
      <path d="M 102.408125 231.005746 
L 996.608125 231.005746 
" clip-path="url(#p86e1cacbfc)" style="fill: none; stroke-dasharray: 5.55,2.4; stroke-dashoffset: 0; stroke: #b0b0b0; stroke-opacity: 0.3; stroke-width: 1.5"/>
     </g>
     <g id="line2d_26">
      <g>
       <use xlink:href="#m02b21ca74f" x="102.408125" y="231.005746" style="stroke: #000000; stroke-width: 1.875"/>
      </g>
     </g>
     <g id="text_24">
      <text style="font: 23px 'DejaVu Sans'; text-anchor: end" x="89.908125" y="239.743949" transform="rotate(-0 89.908125 239.743949)">0.3</text>
     </g>
    </g>
    <g id="ytick_4">
     <g id="line2d_27">
      <path d="M 102.408125 181.271135 
L 996.608125 181.271135 
" clip-path="url(#p86e1cacbfc)" style="fill: none; stroke-dasharray: 5.55,2.4; stroke-dashoffset: 0; stroke: #b0b0b0; stroke-opacity: 0.3; stroke-width: 1.5"/>
     </g>
     <g id="line2d_28">
      <g>
       <use xlink:href="#m02b21ca74f" x="102.408125" y="181.271135" style="stroke: #000000; stroke-width: 1.875"/>
      </g>
     </g>
     <g id="text_25">
      <text style="font: 23px 'DejaVu Sans'; text-anchor: end" x="89.908125" y="190.009339" transform="rotate(-0 89.908125 190.009339)">0.4</text>
     </g>
    </g>
    <g id="ytick_5">
     <g id="line2d_29">
      <path d="M 102.408125 131.536525 
L 996.608125 131.536525 
" clip-path="url(#p86e1cacbfc)" style="fill: none; stroke-dasharray: 5.55,2.4; stroke-dashoffset: 0; stroke: #b0b0b0; stroke-opacity: 0.3; stroke-width: 1.5"/>
     </g>
     <g id="line2d_30">
      <g>
       <use xlink:href="#m02b21ca74f" x="102.408125" y="131.536525" style="stroke: #000000; stroke-width: 1.875"/>
      </g>
     </g>
     <g id="text_26">
      <text style="font: 23px 'DejaVu Sans'; text-anchor: end" x="89.908125" y="140.274728" transform="rotate(-0 89.908125 140.274728)">0.5</text>
     </g>
    </g>
    <g id="ytick_6">
     <g id="line2d_31">
      <path d="M 102.408125 81.801915 
L 996.608125 81.801915 
" clip-path="url(#p86e1cacbfc)" style="fill: none; stroke-dasharray: 5.55,2.4; stroke-dashoffset: 0; stroke: #b0b0b0; stroke-opacity: 0.3; stroke-width: 1.5"/>
     </g>
     <g id="line2d_32">
      <g>
       <use xlink:href="#m02b21ca74f" x="102.408125" y="81.801915" style="stroke: #000000; stroke-width: 1.875"/>
      </g>
     </g>
     <g id="text_27">
      <text style="font: 23px 'DejaVu Sans'; text-anchor: end" x="89.908125" y="90.540118" transform="rotate(-0 89.908125 90.540118)">0.6</text>
     </g>
    </g>
    <g id="ytick_7">
     <g id="line2d_33">
      <path d="M 102.408125 32.067305 
L 996.608125 32.067305 
" clip-path="url(#p86e1cacbfc)" style="fill: none; stroke-dasharray: 5.55,2.4; stroke-dashoffset: 0; stroke: #b0b0b0; stroke-opacity: 0.3; stroke-width: 1.5"/>
     </g>
     <g id="line2d_34">
      <g>
       <use xlink:href="#m02b21ca74f" x="102.408125" y="32.067305" style="stroke: #000000; stroke-width: 1.875"/>
      </g>
     </g>
     <g id="text_28">
      <text style="font: 23px 'DejaVu Sans'; text-anchor: end" x="89.908125" y="40.805508" transform="rotate(-0 89.908125 40.805508)">0.7</text>
     </g>
    </g>
    <g id="text_29">
     <text style="font: 27px 'DejaVu Sans'; text-anchor: middle" x="27.715781" y="193.704788" transform="rotate(-90 27.715781 193.704788)">R</text>
    </g>
   </g>
   <g id="LineCollection_1">
    <path d="M 143.05358 338.745513 
L 143.05358 293.836518 
" clip-path="url(#p86e1cacbfc)" style="fill: none; stroke: #ff6347; stroke-opacity: 0.9; stroke-width: 3"/>
   </g>
   <g id="line2d_35">
    <defs>
     <path id="m506a9c046c" d="M 5 0 
L -5 -0 
" style="stroke: #ff6347; stroke-opacity: 0.9"/>
    </defs>
    <g clip-path="url(#p86e1cacbfc)">
     <use xlink:href="#m506a9c046c" x="143.05358" y="338.745513" style="fill: #ff6347; fill-opacity: 0.9; stroke: #ff6347; stroke-opacity: 0.9"/>
    </g>
   </g>
   <g id="line2d_36">
    <g clip-path="url(#p86e1cacbfc)">
     <use xlink:href="#m506a9c046c" x="143.05358" y="293.836518" style="fill: #ff6347; fill-opacity: 0.9; stroke: #ff6347; stroke-opacity: 0.9"/>
    </g>
   </g>
   <g id="LineCollection_2">
    <path d="M 180.003993 343.755774 
L 180.003993 301.896418 
" clip-path="url(#p86e1cacbfc)" style="fill: none; stroke: #ff6347; stroke-opacity: 0.9; stroke-width: 3"/>
   </g>
   <g id="line2d_37">
    <g clip-path="url(#p86e1cacbfc)">
     <use xlink:href="#m506a9c046c" x="180.003993" y="343.755774" style="fill: #ff6347; fill-opacity: 0.9; stroke: #ff6347; stroke-opacity: 0.9"/>
    </g>
   </g>
   <g id="line2d_38">
    <g clip-path="url(#p86e1cacbfc)">
     <use xlink:href="#m506a9c046c" x="180.003993" y="301.896418" style="fill: #ff6347; fill-opacity: 0.9; stroke: #ff6347; stroke-opacity: 0.9"/>
    </g>
   </g>
   <g id="LineCollection_3">
    <path d="M 216.954406 343.798286 
L 216.954406 297.162342 
" clip-path="url(#p86e1cacbfc)" style="fill: none; stroke: #ff6347; stroke-opacity: 0.9; stroke-width: 3"/>
   </g>
   <g id="line2d_39">
    <g clip-path="url(#p86e1cacbfc)">
     <use xlink:href="#m506a9c046c" x="216.954406" y="343.798286" style="fill: #ff6347; fill-opacity: 0.9; stroke: #ff6347; stroke-opacity: 0.9"/>
    </g>
   </g>
   <g id="line2d_40">
    <g clip-path="url(#p86e1cacbfc)">
     <use xlink:href="#m506a9c046c" x="216.954406" y="297.162342" style="fill: #ff6347; fill-opacity: 0.9; stroke: #ff6347; stroke-opacity: 0.9"/>
    </g>
   </g>
   <g id="LineCollection_4">
    <path d="M 272.380026 328.549285 
L 272.380026 289.047767 
" clip-path="url(#p86e1cacbfc)" style="fill: none; stroke: #b22222; stroke-opacity: 0.9; stroke-width: 3"/>
   </g>
   <g id="line2d_41">
    <defs>
     <path id="ma8d729b691" d="M 5 0 
L -5 -0 
" style="stroke: #b22222; stroke-opacity: 0.9"/>
    </defs>
    <g clip-path="url(#p86e1cacbfc)">
     <use xlink:href="#ma8d729b691" x="272.380026" y="328.549285" style="fill: #b22222; fill-opacity: 0.9; stroke: #b22222; stroke-opacity: 0.9"/>
    </g>
   </g>
   <g id="line2d_42">
    <g clip-path="url(#p86e1cacbfc)">
     <use xlink:href="#ma8d729b691" x="272.380026" y="289.047767" style="fill: #b22222; fill-opacity: 0.9; stroke: #b22222; stroke-opacity: 0.9"/>
    </g>
   </g>
   <g id="LineCollection_5">
    <path d="M 309.330439 331.294917 
L 309.330439 284.54656 
" clip-path="url(#p86e1cacbfc)" style="fill: none; stroke: #b22222; stroke-opacity: 0.9; stroke-width: 3"/>
   </g>
   <g id="line2d_43">
    <g clip-path="url(#p86e1cacbfc)">
     <use xlink:href="#ma8d729b691" x="309.330439" y="331.294917" style="fill: #b22222; fill-opacity: 0.9; stroke: #b22222; stroke-opacity: 0.9"/>
    </g>
   </g>
   <g id="line2d_44">
    <g clip-path="url(#p86e1cacbfc)">
     <use xlink:href="#ma8d729b691" x="309.330439" y="284.54656" style="fill: #b22222; fill-opacity: 0.9; stroke: #b22222; stroke-opacity: 0.9"/>
    </g>
   </g>
   <g id="LineCollection_6">
    <path d="M 346.280852 337.86684 
L 346.280852 305.675888 
" clip-path="url(#p86e1cacbfc)" style="fill: none; stroke: #b22222; stroke-opacity: 0.9; stroke-width: 3"/>
   </g>
   <g id="line2d_45">
    <g clip-path="url(#p86e1cacbfc)">
     <use xlink:href="#ma8d729b691" x="346.280852" y="337.86684" style="fill: #b22222; fill-opacity: 0.9; stroke: #b22222; stroke-opacity: 0.9"/>
    </g>
   </g>
   <g id="line2d_46">
    <g clip-path="url(#p86e1cacbfc)">
     <use xlink:href="#ma8d729b691" x="346.280852" y="305.675888" style="fill: #b22222; fill-opacity: 0.9; stroke: #b22222; stroke-opacity: 0.9"/>
    </g>
   </g>
   <g id="LineCollection_7">
    <path d="M 438.656885 334.594828 
L 438.656885 297.330823 
" clip-path="url(#p86e1cacbfc)" style="fill: none; stroke: #b0c4de; stroke-opacity: 0.9; stroke-width: 3"/>
   </g>
   <g id="line2d_47">
    <defs>
     <path id="m197ab917cf" d="M 5 0 
L -5 -0 
" style="stroke: #b0c4de; stroke-opacity: 0.9"/>
    </defs>
    <g clip-path="url(#p86e1cacbfc)">
     <use xlink:href="#m197ab917cf" x="438.656885" y="334.594828" style="fill: #b0c4de; fill-opacity: 0.9; stroke: #b0c4de; stroke-opacity: 0.9"/>
    </g>
   </g>
   <g id="line2d_48">
    <g clip-path="url(#p86e1cacbfc)">
     <use xlink:href="#m197ab917cf" x="438.656885" y="297.330823" style="fill: #b0c4de; fill-opacity: 0.9; stroke: #b0c4de; stroke-opacity: 0.9"/>
    </g>
   </g>
   <g id="LineCollection_8">
    <path d="M 475.607299 337.607579 
L 475.607299 296.461517 
" clip-path="url(#p86e1cacbfc)" style="fill: none; stroke: #b0c4de; stroke-opacity: 0.9; stroke-width: 3"/>
   </g>
   <g id="line2d_49">
    <g clip-path="url(#p86e1cacbfc)">
     <use xlink:href="#m197ab917cf" x="475.607299" y="337.607579" style="fill: #b0c4de; fill-opacity: 0.9; stroke: #b0c4de; stroke-opacity: 0.9"/>
    </g>
   </g>
   <g id="line2d_50">
    <g clip-path="url(#p86e1cacbfc)">
     <use xlink:href="#m197ab917cf" x="475.607299" y="296.461517" style="fill: #b0c4de; fill-opacity: 0.9; stroke: #b0c4de; stroke-opacity: 0.9"/>
    </g>
   </g>
   <g id="LineCollection_9">
    <path d="M 512.557712 342.12782 
L 512.557712 301.712321 
" clip-path="url(#p86e1cacbfc)" style="fill: none; stroke: #b0c4de; stroke-opacity: 0.9; stroke-width: 3"/>
   </g>
   <g id="line2d_51">
    <g clip-path="url(#p86e1cacbfc)">
     <use xlink:href="#m197ab917cf" x="512.557712" y="342.12782" style="fill: #b0c4de; fill-opacity: 0.9; stroke: #b0c4de; stroke-opacity: 0.9"/>
    </g>
   </g>
   <g id="line2d_52">
    <g clip-path="url(#p86e1cacbfc)">
     <use xlink:href="#m197ab917cf" x="512.557712" y="301.712321" style="fill: #b0c4de; fill-opacity: 0.9; stroke: #b0c4de; stroke-opacity: 0.9"/>
    </g>
   </g>
   <g id="LineCollection_10">
    <path d="M 549.508125 352.478929 
L 549.508125 326.840287 
" clip-path="url(#p86e1cacbfc)" style="fill: none; stroke: #4682b4; stroke-opacity: 0.9; stroke-width: 3"/>
   </g>
   <g id="line2d_53">
    <defs>
     <path id="me21a577909" d="M 5 0 
L -5 -0 
" style="stroke: #4682b4; stroke-opacity: 0.9"/>
    </defs>
    <g clip-path="url(#p86e1cacbfc)">
     <use xlink:href="#me21a577909" x="549.508125" y="352.478929" style="fill: #4682b4; fill-opacity: 0.9; stroke: #4682b4; stroke-opacity: 0.9"/>
    </g>
   </g>
   <g id="line2d_54">
    <g clip-path="url(#p86e1cacbfc)">
     <use xlink:href="#me21a577909" x="549.508125" y="326.840287" style="fill: #4682b4; fill-opacity: 0.9; stroke: #4682b4; stroke-opacity: 0.9"/>
    </g>
   </g>
   <g id="LineCollection_11">
    <path d="M 586.458538 343.291201 
L 586.458538 308.273844 
" clip-path="url(#p86e1cacbfc)" style="fill: none; stroke: #4682b4; stroke-opacity: 0.9; stroke-width: 3"/>
   </g>
   <g id="line2d_55">
    <g clip-path="url(#p86e1cacbfc)">
     <use xlink:href="#me21a577909" x="586.458538" y="343.291201" style="fill: #4682b4; fill-opacity: 0.9; stroke: #4682b4; stroke-opacity: 0.9"/>
    </g>
   </g>
   <g id="line2d_56">
    <g clip-path="url(#p86e1cacbfc)">
     <use xlink:href="#me21a577909" x="586.458538" y="308.273844" style="fill: #4682b4; fill-opacity: 0.9; stroke: #4682b4; stroke-opacity: 0.9"/>
    </g>
   </g>
   <g id="LineCollection_12">
    <path d="M 623.408951 347.121204 
L 623.408951 309.939835 
" clip-path="url(#p86e1cacbfc)" style="fill: none; stroke: #008080; stroke-opacity: 0.9; stroke-width: 3"/>
   </g>
   <g id="line2d_57">
    <defs>
     <path id="m786c2eb7f7" d="M 5 0 
L -5 -0 
" style="stroke: #008080; stroke-opacity: 0.9"/>
    </defs>
    <g clip-path="url(#p86e1cacbfc)">
     <use xlink:href="#m786c2eb7f7" x="623.408951" y="347.121204" style="fill: #008080; fill-opacity: 0.9; stroke: #008080; stroke-opacity: 0.9"/>
    </g>
   </g>
   <g id="line2d_58">
    <g clip-path="url(#p86e1cacbfc)">
     <use xlink:href="#m786c2eb7f7" x="623.408951" y="309.939835" style="fill: #008080; fill-opacity: 0.9; stroke: #008080; stroke-opacity: 0.9"/>
    </g>
   </g>
   <g id="LineCollection_13">
    <path d="M 678.834571 366.213342 
L 678.834571 344.560649 
" clip-path="url(#p86e1cacbfc)" style="fill: none; stroke: #ff8c00; stroke-opacity: 0.9; stroke-width: 3"/>
   </g>
   <g id="line2d_59">
    <defs>
     <path id="m84cd241ed1" d="M 5 0 
L -5 -0 
" style="stroke: #ff8c00; stroke-opacity: 0.9"/>
    </defs>
    <g clip-path="url(#p86e1cacbfc)">
     <use xlink:href="#m84cd241ed1" x="678.834571" y="366.213342" style="fill: #ff8c00; fill-opacity: 0.9; stroke: #ff8c00; stroke-opacity: 0.9"/>
    </g>
   </g>
   <g id="line2d_60">
    <g clip-path="url(#p86e1cacbfc)">
     <use xlink:href="#m84cd241ed1" x="678.834571" y="344.560649" style="fill: #ff8c00; fill-opacity: 0.9; stroke: #ff8c00; stroke-opacity: 0.9"/>
    </g>
   </g>
   <g id="LineCollection_14">
    <path d="M 715.784985 362.53021 
L 715.784985 337.912408 
" clip-path="url(#p86e1cacbfc)" style="fill: none; stroke: #ff8c00; stroke-opacity: 0.9; stroke-width: 3"/>
   </g>
   <g id="line2d_61">
    <g clip-path="url(#p86e1cacbfc)">
     <use xlink:href="#m84cd241ed1" x="715.784985" y="362.53021" style="fill: #ff8c00; fill-opacity: 0.9; stroke: #ff8c00; stroke-opacity: 0.9"/>
    </g>
   </g>
   <g id="line2d_62">
    <g clip-path="url(#p86e1cacbfc)">
     <use xlink:href="#m84cd241ed1" x="715.784985" y="337.912408" style="fill: #ff8c00; fill-opacity: 0.9; stroke: #ff8c00; stroke-opacity: 0.9"/>
    </g>
   </g>
   <g id="LineCollection_15">
    <path d="M 752.735398 329.44246 
L 752.735398 290.003374 
" clip-path="url(#p86e1cacbfc)" style="fill: none; stroke: #ff8c00; stroke-opacity: 0.9; stroke-width: 3"/>
   </g>
   <g id="line2d_63">
    <g clip-path="url(#p86e1cacbfc)">
     <use xlink:href="#m84cd241ed1" x="752.735398" y="329.44246" style="fill: #ff8c00; fill-opacity: 0.9; stroke: #ff8c00; stroke-opacity: 0.9"/>
    </g>
   </g>
   <g id="line2d_64">
    <g clip-path="url(#p86e1cacbfc)">
     <use xlink:href="#m84cd241ed1" x="752.735398" y="290.003374" style="fill: #ff8c00; fill-opacity: 0.9; stroke: #ff8c00; stroke-opacity: 0.9"/>
    </g>
   </g>
   <g id="LineCollection_16">
    <path d="M 808.161018 305.248496 
L 808.161018 261.626753 
" clip-path="url(#p86e1cacbfc)" style="fill: none; stroke: #9acd32; stroke-opacity: 0.9; stroke-width: 3"/>
   </g>
   <g id="line2d_65">
    <defs>
     <path id="mb7a2c352d6" d="M 5 0 
L -5 -0 
" style="stroke: #9acd32; stroke-opacity: 0.9"/>
    </defs>
    <g clip-path="url(#p86e1cacbfc)">
     <use xlink:href="#mb7a2c352d6" x="808.161018" y="305.248496" style="fill: #9acd32; fill-opacity: 0.9; stroke: #9acd32; stroke-opacity: 0.9"/>
    </g>
   </g>
   <g id="line2d_66">
    <g clip-path="url(#p86e1cacbfc)">
     <use xlink:href="#mb7a2c352d6" x="808.161018" y="261.626753" style="fill: #9acd32; fill-opacity: 0.9; stroke: #9acd32; stroke-opacity: 0.9"/>
    </g>
   </g>
   <g id="LineCollection_17">
    <path d="M 845.111431 310.834012 
L 845.111431 272.793936 
" clip-path="url(#p86e1cacbfc)" style="fill: none; stroke: #228b22; stroke-opacity: 0.9; stroke-width: 3"/>
   </g>
   <g id="line2d_67">
    <defs>
     <path id="m60a4db888a" d="M 5 0 
L -5 -0 
" style="stroke: #228b22; stroke-opacity: 0.9"/>
    </defs>
    <g clip-path="url(#p86e1cacbfc)">
     <use xlink:href="#m60a4db888a" x="845.111431" y="310.834012" style="fill: #228b22; fill-opacity: 0.9; stroke: #228b22; stroke-opacity: 0.9"/>
    </g>
   </g>
   <g id="line2d_68">
    <g clip-path="url(#p86e1cacbfc)">
     <use xlink:href="#m60a4db888a" x="845.111431" y="272.793936" style="fill: #228b22; fill-opacity: 0.9; stroke: #228b22; stroke-opacity: 0.9"/>
    </g>
   </g>
   <g id="LineCollection_18">
    <path d="M 882.061844 320.055848 
L 882.061844 280.085955 
" clip-path="url(#p86e1cacbfc)" style="fill: none; stroke: #228b22; stroke-opacity: 0.9; stroke-width: 3"/>
   </g>
   <g id="line2d_69">
    <g clip-path="url(#p86e1cacbfc)">
     <use xlink:href="#m60a4db888a" x="882.061844" y="320.055848" style="fill: #228b22; fill-opacity: 0.9; stroke: #228b22; stroke-opacity: 0.9"/>
    </g>
   </g>
   <g id="line2d_70">
    <g clip-path="url(#p86e1cacbfc)">
     <use xlink:href="#m60a4db888a" x="882.061844" y="280.085955" style="fill: #228b22; fill-opacity: 0.9; stroke: #228b22; stroke-opacity: 0.9"/>
    </g>
   </g>
   <g id="LineCollection_19">
    <path d="M 919.012257 314.717837 
L 919.012257 268.682552 
" clip-path="url(#p86e1cacbfc)" style="fill: none; stroke: #228b22; stroke-opacity: 0.9; stroke-width: 3"/>
   </g>
   <g id="line2d_71">
    <g clip-path="url(#p86e1cacbfc)">
     <use xlink:href="#m60a4db888a" x="919.012257" y="314.717837" style="fill: #228b22; fill-opacity: 0.9; stroke: #228b22; stroke-opacity: 0.9"/>
    </g>
   </g>
   <g id="line2d_72">
    <g clip-path="url(#p86e1cacbfc)">
     <use xlink:href="#m60a4db888a" x="919.012257" y="268.682552" style="fill: #228b22; fill-opacity: 0.9; stroke: #228b22; stroke-opacity: 0.9"/>
    </g>
   </g>
   <g id="LineCollection_20">
    <path d="M 955.96267 309.105732 
L 955.96267 265.598347 
" clip-path="url(#p86e1cacbfc)" style="fill: none; stroke: #228b22; stroke-opacity: 0.9; stroke-width: 3"/>
   </g>
   <g id="line2d_73">
    <g clip-path="url(#p86e1cacbfc)">
     <use xlink:href="#m60a4db888a" x="955.96267" y="309.105732" style="fill: #228b22; fill-opacity: 0.9; stroke: #228b22; stroke-opacity: 0.9"/>
    </g>
   </g>
   <g id="line2d_74">
    <g clip-path="url(#p86e1cacbfc)">
     <use xlink:href="#m60a4db888a" x="955.96267" y="265.598347" style="fill: #228b22; fill-opacity: 0.9; stroke: #228b22; stroke-opacity: 0.9"/>
    </g>
   </g>
   <g id="line2d_75">
    <defs>
     <path id="m78f688d4b4" d="M 0 8 
C 2.121625 8 4.156639 7.15707 5.656854 5.656854 
C 7.15707 4.156639 8 2.121625 8 0 
C 8 -2.121625 7.15707 -4.156639 5.656854 -5.656854 
C 4.156639 -7.15707 2.121625 -8 0 -8 
C -2.121625 -8 -4.156639 -7.15707 -5.656854 -5.656854 
C -7.15707 -4.156639 -8 -2.121625 -8 0 
C -8 2.121625 -7.15707 4.156639 -5.656854 5.656854 
C -4.156639 7.15707 -2.121625 8 0 8 
z
" style="stroke: #ff6347; stroke-opacity: 0.9"/>
    </defs>
    <g clip-path="url(#p86e1cacbfc)">
     <use xlink:href="#m78f688d4b4" x="143.05358" y="316.291016" style="fill: #ff6347; fill-opacity: 0.9; stroke: #ff6347; stroke-opacity: 0.9"/>
    </g>
   </g>
   <g id="line2d_76">
    <g clip-path="url(#p86e1cacbfc)">
     <use xlink:href="#m78f688d4b4" x="180.003993" y="322.826096" style="fill: #ff6347; fill-opacity: 0.9; stroke: #ff6347; stroke-opacity: 0.9"/>
    </g>
   </g>
   <g id="line2d_77">
    <g clip-path="url(#p86e1cacbfc)">
     <use xlink:href="#m78f688d4b4" x="216.954406" y="320.480314" style="fill: #ff6347; fill-opacity: 0.9; stroke: #ff6347; stroke-opacity: 0.9"/>
    </g>
   </g>
   <g id="line2d_78">
    <defs>
     <path id="md87645f158" d="M 0 8 
C 2.121625 8 4.156639 7.15707 5.656854 5.656854 
C 7.15707 4.156639 8 2.121625 8 0 
C 8 -2.121625 7.15707 -4.156639 5.656854 -5.656854 
C 4.156639 -7.15707 2.121625 -8 0 -8 
C -2.121625 -8 -4.156639 -7.15707 -5.656854 -5.656854 
C -7.15707 -4.156639 -8 -2.121625 -8 0 
C -8 2.121625 -7.15707 4.156639 -5.656854 5.656854 
C -4.156639 7.15707 -2.121625 8 0 8 
z
" style="stroke: #b22222; stroke-opacity: 0.9"/>
    </defs>
    <g clip-path="url(#p86e1cacbfc)">
     <use xlink:href="#md87645f158" x="272.380026" y="308.798526" style="fill: #b22222; fill-opacity: 0.9; stroke: #b22222; stroke-opacity: 0.9"/>
    </g>
   </g>
   <g id="line2d_79">
    <g clip-path="url(#p86e1cacbfc)">
     <use xlink:href="#md87645f158" x="309.330439" y="307.920739" style="fill: #b22222; fill-opacity: 0.9; stroke: #b22222; stroke-opacity: 0.9"/>
    </g>
   </g>
   <g id="line2d_80">
    <g clip-path="url(#p86e1cacbfc)">
     <use xlink:href="#md87645f158" x="346.280852" y="321.771364" style="fill: #b22222; fill-opacity: 0.9; stroke: #b22222; stroke-opacity: 0.9"/>
    </g>
   </g>
   <g id="line2d_81">
    <defs>
     <path id="m69bfddb343" d="M 0 8 
C 2.121625 8 4.156639 7.15707 5.656854 5.656854 
C 7.15707 4.156639 8 2.121625 8 0 
C 8 -2.121625 7.15707 -4.156639 5.656854 -5.656854 
C 4.156639 -7.15707 2.121625 -8 0 -8 
C -2.121625 -8 -4.156639 -7.15707 -5.656854 -5.656854 
C -7.15707 -4.156639 -8 -2.121625 -8 0 
C -8 2.121625 -7.15707 4.156639 -5.656854 5.656854 
C -4.156639 7.15707 -2.121625 8 0 8 
z
" style="stroke: #b0c4de; stroke-opacity: 0.9"/>
    </defs>
    <g clip-path="url(#p86e1cacbfc)">
     <use xlink:href="#m69bfddb343" x="438.656885" y="315.962826" style="fill: #b0c4de; fill-opacity: 0.9; stroke: #b0c4de; stroke-opacity: 0.9"/>
    </g>
   </g>
   <g id="line2d_82">
    <g clip-path="url(#p86e1cacbfc)">
     <use xlink:href="#m69bfddb343" x="475.607299" y="317.034548" style="fill: #b0c4de; fill-opacity: 0.9; stroke: #b0c4de; stroke-opacity: 0.9"/>
    </g>
   </g>
   <g id="line2d_83">
    <g clip-path="url(#p86e1cacbfc)">
     <use xlink:href="#m69bfddb343" x="512.557712" y="321.920071" style="fill: #b0c4de; fill-opacity: 0.9; stroke: #b0c4de; stroke-opacity: 0.9"/>
    </g>
   </g>
   <g id="line2d_84">
    <defs>
     <path id="m13781bbc87" d="M 0 8 
C 2.121625 8 4.156639 7.15707 5.656854 5.656854 
C 7.15707 4.156639 8 2.121625 8 0 
C 8 -2.121625 7.15707 -4.156639 5.656854 -5.656854 
C 4.156639 -7.15707 2.121625 -8 0 -8 
C -2.121625 -8 -4.156639 -7.15707 -5.656854 -5.656854 
C -7.15707 -4.156639 -8 -2.121625 -8 0 
C -8 2.121625 -7.15707 4.156639 -5.656854 5.656854 
C -4.156639 7.15707 -2.121625 8 0 8 
z
" style="stroke: #4682b4; stroke-opacity: 0.9"/>
    </defs>
    <g clip-path="url(#p86e1cacbfc)">
     <use xlink:href="#m13781bbc87" x="549.508125" y="339.659608" style="fill: #4682b4; fill-opacity: 0.9; stroke: #4682b4; stroke-opacity: 0.9"/>
    </g>
   </g>
   <g id="line2d_85">
    <g clip-path="url(#p86e1cacbfc)">
     <use xlink:href="#m13781bbc87" x="586.458538" y="325.782523" style="fill: #4682b4; fill-opacity: 0.9; stroke: #4682b4; stroke-opacity: 0.9"/>
    </g>
   </g>
   <g id="line2d_86">
    <defs>
     <path id="m2a1dc0b846" d="M 0 8 
C 2.121625 8 4.156639 7.15707 5.656854 5.656854 
C 7.15707 4.156639 8 2.121625 8 0 
C 8 -2.121625 7.15707 -4.156639 5.656854 -5.656854 
C 4.156639 -7.15707 2.121625 -8 0 -8 
C -2.121625 -8 -4.156639 -7.15707 -5.656854 -5.656854 
C -7.15707 -4.156639 -8 -2.121625 -8 0 
C -8 2.121625 -7.15707 4.156639 -5.656854 5.656854 
C -4.156639 7.15707 -2.121625 8 0 8 
z
" style="stroke: #008080; stroke-opacity: 0.9"/>
    </defs>
    <g clip-path="url(#p86e1cacbfc)">
     <use xlink:href="#m2a1dc0b846" x="623.408951" y="328.530519" style="fill: #008080; fill-opacity: 0.9; stroke: #008080; stroke-opacity: 0.9"/>
    </g>
   </g>
   <g id="line2d_87">
    <defs>
     <path id="m519c7330f3" d="M 0 8 
C 2.121625 8 4.156639 7.15707 5.656854 5.656854 
C 7.15707 4.156639 8 2.121625 8 0 
C 8 -2.121625 7.15707 -4.156639 5.656854 -5.656854 
C 4.156639 -7.15707 2.121625 -8 0 -8 
C -2.121625 -8 -4.156639 -7.15707 -5.656854 -5.656854 
C -7.15707 -4.156639 -8 -2.121625 -8 0 
C -8 2.121625 -7.15707 4.156639 -5.656854 5.656854 
C -4.156639 7.15707 -2.121625 8 0 8 
z
" style="stroke: #ff8c00; stroke-opacity: 0.9"/>
    </defs>
    <g clip-path="url(#p86e1cacbfc)">
     <use xlink:href="#m519c7330f3" x="678.834571" y="355.386996" style="fill: #ff8c00; fill-opacity: 0.9; stroke: #ff8c00; stroke-opacity: 0.9"/>
    </g>
   </g>
   <g id="line2d_88">
    <g clip-path="url(#p86e1cacbfc)">
     <use xlink:href="#m519c7330f3" x="715.784985" y="350.221309" style="fill: #ff8c00; fill-opacity: 0.9; stroke: #ff8c00; stroke-opacity: 0.9"/>
    </g>
   </g>
   <g id="line2d_89">
    <g clip-path="url(#p86e1cacbfc)">
     <use xlink:href="#m519c7330f3" x="752.735398" y="309.722917" style="fill: #ff8c00; fill-opacity: 0.9; stroke: #ff8c00; stroke-opacity: 0.9"/>
    </g>
   </g>
   <g id="line2d_90">
    <defs>
     <path id="me380ad471b" d="M 0 8 
C 2.121625 8 4.156639 7.15707 5.656854 5.656854 
C 7.15707 4.156639 8 2.121625 8 0 
C 8 -2.121625 7.15707 -4.156639 5.656854 -5.656854 
C 4.156639 -7.15707 2.121625 -8 0 -8 
C -2.121625 -8 -4.156639 -7.15707 -5.656854 -5.656854 
C -7.15707 -4.156639 -8 -2.121625 -8 0 
C -8 2.121625 -7.15707 4.156639 -5.656854 5.656854 
C -4.156639 7.15707 -2.121625 8 0 8 
z
" style="stroke: #9acd32; stroke-opacity: 0.9"/>
    </defs>
    <g clip-path="url(#p86e1cacbfc)">
     <use xlink:href="#me380ad471b" x="808.161018" y="283.437624" style="fill: #9acd32; fill-opacity: 0.9; stroke: #9acd32; stroke-opacity: 0.9"/>
    </g>
   </g>
   <g id="line2d_91">
    <defs>
     <path id="m11061ea51f" d="M 0 8 
C 2.121625 8 4.156639 7.15707 5.656854 5.656854 
C 7.15707 4.156639 8 2.121625 8 0 
C 8 -2.121625 7.15707 -4.156639 5.656854 -5.656854 
C 4.156639 -7.15707 2.121625 -8 0 -8 
C -2.121625 -8 -4.156639 -7.15707 -5.656854 -5.656854 
C -7.15707 -4.156639 -8 -2.121625 -8 0 
C -8 2.121625 -7.15707 4.156639 -5.656854 5.656854 
C -4.156639 7.15707 -2.121625 8 0 8 
z
" style="stroke: #228b22; stroke-opacity: 0.9"/>
    </defs>
    <g clip-path="url(#p86e1cacbfc)">
     <use xlink:href="#m11061ea51f" x="845.111431" y="291.813974" style="fill: #228b22; fill-opacity: 0.9; stroke: #228b22; stroke-opacity: 0.9"/>
    </g>
   </g>
   <g id="line2d_92">
    <g clip-path="url(#p86e1cacbfc)">
     <use xlink:href="#m11061ea51f" x="882.061844" y="300.070902" style="fill: #228b22; fill-opacity: 0.9; stroke: #228b22; stroke-opacity: 0.9"/>
    </g>
   </g>
   <g id="line2d_93">
    <g clip-path="url(#p86e1cacbfc)">
     <use xlink:href="#m11061ea51f" x="919.012257" y="291.700195" style="fill: #228b22; fill-opacity: 0.9; stroke: #228b22; stroke-opacity: 0.9"/>
    </g>
   </g>
   <g id="line2d_94">
    <g clip-path="url(#p86e1cacbfc)">
     <use xlink:href="#m11061ea51f" x="955.96267" y="287.352039" style="fill: #228b22; fill-opacity: 0.9; stroke: #228b22; stroke-opacity: 0.9"/>
    </g>
   </g>
   <g id="patch_3">
    <path d="M 102.408125 380.209576 
L 102.408125 7.2 
" style="fill: none; stroke: #000000; stroke-width: 1.875; stroke-linejoin: miter; stroke-linecap: square"/>
   </g>
   <g id="patch_4">
    <path d="M 102.408125 380.209576 
L 996.608125 380.209576 
" style="fill: none; stroke: #000000; stroke-width: 1.875; stroke-linejoin: miter; stroke-linecap: square"/>
   </g>
  </g>
 </g>
 <defs>
  <clipPath id="p86e1cacbfc">
   <rect x="102.408125" y="7.2" width="894.2" height="373.009576"/>
  </clipPath>
 </defs>
</svg>
